<svg width="75" height="113" viewBox="0 0 75 113" fill="none" xmlns="http://www.w3.org/2000/svg">
<path fill-rule="evenodd" clip-rule="evenodd" d="M8.14982 79.2576L8.82335 79.5529C15.6457 82.5435 21.5632 84.8256 26.5803 86.4051C31.5922 87.9683 36.7413 88.75 42.0312 88.75C42.9519 88.75 43.8998 88.6623 44.8758 88.4849L44.8833 88.4835C45.7102 88.3397 46.3421 88.16 46.8055 87.9615C46.9409 87.5896 47.0624 87.1251 47.1628 86.5574C47.2989 85.7399 47.3594 85.1232 47.3594 84.6875C47.3594 82.7704 46.4631 81.0769 44.4574 79.5833C42.3304 77.9994 39.4926 76.3927 35.9221 74.7697L35.9105 74.7645L33.4282 73.5587L33.4183 73.5537C26.3688 69.935 20.683 66.6808 16.3729 63.7916L16.3623 63.7845C12.0231 60.7952 8.34523 56.8961 5.32578 52.1033L5.31958 52.0935C2.29655 47.1689 0.8125 41.1888 0.8125 34.2031C0.8125 23.9786 3.66055 15.6781 9.44467 9.40789L9.44749 9.40483C15.337 3.07362 24.5909 0.015625 36.9688 0.015625C47.4509 0.015625 55.8019 0.649239 61.9924 1.93496L62.1555 1.96884L62.2989 2.05377C64.8693 3.577 67.1207 5.17946 69.0471 6.86378C71.0329 8.51209 72.9099 10.513 74.6809 12.8583L74.8828 13.1258V13.4609C74.8828 16.8064 74.5485 20.4241 73.8851 24.3114C73.2679 28.1555 72.388 31.7034 71.242 34.9518C70.1495 38.1802 68.9254 40.6281 67.5245 42.1846L67.3918 42.3321L67.2127 42.4178C66.0558 42.9711 64.7848 43.393 63.4048 43.6887L63.388 43.6923L63.3711 43.6954C61.9814 43.9435 60.3012 44.0625 58.3438 44.0625C56.2906 44.0625 54.5696 43.9201 53.2049 43.6168C51.8353 43.3124 50.5606 42.8034 49.3863 42.0886L48.9862 41.845L46.8341 27.4051C44.3555 26.7575 41.7348 26.2841 38.9711 25.9864L38.9635 25.9856L38.956 25.9847C36.0885 25.6318 34.167 25.4761 33.1289 25.4934C31.674 26.1999 30.737 27.1375 30.2191 28.2798C29.6792 29.5291 29.3906 31.0718 29.3906 32.9375C29.3906 34.8519 29.8955 36.4644 30.8769 37.8199C31.9706 39.2166 33.2805 40.3724 34.8114 41.2909C36.4137 42.2523 38.4911 43.3383 41.0524 44.549L41.0624 44.5538L44.1746 46.1099L44.1832 46.1144C50.9023 49.6384 56.2138 52.7291 60.103 55.3851C64.0594 58.087 67.3628 61.5121 70.0108 65.651C72.7597 69.8263 74.1094 74.8525 74.1094 80.6797C74.1094 87.4738 72.3229 93.3808 68.7157 98.3529L68.7129 98.3566C65.1328 103.243 60.5266 106.784 54.9113 108.962C51.8779 110.166 48.5447 111.027 44.9167 111.552C41.2951 112.076 37.1204 112.336 32.3984 112.336C29.1282 112.336 25.6343 111.927 21.9199 111.118C18.1548 110.297 14.4952 108.851 10.9429 106.786L10.9378 106.784C7.37508 104.685 4.51392 101.873 2.36547 98.3574L2.27568 98.2104L2.2402 98.0419C2.03413 97.0631 1.9375 95.9118 1.9375 94.6016C1.9375 92.0842 2.40681 89.5542 3.33417 87.0162C4.27076 84.4529 5.72022 82.0517 7.66727 79.8126L8.14982 79.2576ZM54.5469 108.031C59.9844 105.922 64.4375 102.5 67.9062 97.7656C71.375 92.9844 73.1094 87.2891 73.1094 80.6797C73.1094 75.0078 71.7969 70.1797 69.1719 66.1953C66.5938 62.1641 63.3828 58.8359 59.5391 56.2109C55.6953 53.5859 50.4219 50.5156 43.7188 47L40.625 45.4531C38.0469 44.2344 35.9375 43.1328 34.2969 42.1484C32.6562 41.1641 31.25 39.9219 30.0781 38.4219C28.9531 36.875 28.3906 35.0469 28.3906 32.9375C28.3906 30.9688 28.6953 29.2812 29.3047 27.875C29.9609 26.4219 31.1562 25.2969 32.8906 24.5C33.9688 24.4531 36.0312 24.6172 39.0781 24.9922C42.125 25.3203 45.0078 25.8594 47.7266 26.6094L49.9062 41.2344C50.9844 41.8906 52.1562 42.3594 53.4219 42.6406C54.6875 42.9219 56.3281 43.0625 58.3438 43.0625C60.2656 43.0625 61.8828 42.9453 63.1953 42.7109C64.5078 42.4297 65.7031 42.0312 66.7812 41.5156C68.0469 40.1094 69.2188 37.8125 70.2969 34.625C71.4219 31.4375 72.2891 27.9453 72.8984 24.1484C73.5547 20.3047 73.8828 16.7422 73.8828 13.4609C72.1484 11.1641 70.3203 9.21875 68.3984 7.625C66.5234 5.98438 64.3203 4.41406 61.7891 2.91406C55.6953 1.64844 47.4219 1.01562 36.9688 1.01562C24.7344 1.01562 15.8047 4.03906 10.1797 10.0859C4.60156 16.1328 1.8125 24.1719 1.8125 34.2031C1.8125 41.0469 3.26562 46.8359 6.17188 51.5703C9.125 56.2578 12.7109 60.0547 16.9297 62.9609C21.1953 65.8203 26.8438 69.0547 33.875 72.6641L36.3359 73.8594C39.9453 75.5 42.8516 77.1406 45.0547 78.7812C47.2578 80.4219 48.3594 82.3906 48.3594 84.6875C48.3594 85.2031 48.2891 85.8828 48.1484 86.7266C48.0078 87.5234 47.8203 88.1797 47.5859 88.6953C46.9766 89.0234 46.1328 89.2812 45.0547 89.4688C44.0234 89.6562 43.0156 89.75 42.0312 89.75C36.6406 89.75 31.3906 88.9531 26.2812 87.3594C21.2188 85.7656 15.2656 83.4688 8.42188 80.4688C6.54688 82.625 5.16406 84.9219 4.27344 87.3594C3.38281 89.7969 2.9375 92.2109 2.9375 94.6016C2.9375 95.8672 3.03125 96.9453 3.21875 97.8359C5.28125 101.211 8.02344 103.906 11.4453 105.922C14.9141 107.938 18.4766 109.344 22.1328 110.141C25.7891 110.938 29.2109 111.336 32.3984 111.336C37.0859 111.336 41.2109 111.078 44.7734 110.562C48.3359 110.047 51.5938 109.203 54.5469 108.031Z" fill="black"/>
<path fill-rule="evenodd" clip-rule="evenodd" d="M8.14982 79.2576L8.82335 79.5529C15.6457 82.5435 21.5632 84.8256 26.5803 86.4051C31.5922 87.9683 36.7413 88.75 42.0312 88.75C42.9519 88.75 43.8998 88.6623 44.8758 88.4849L44.8833 88.4835C45.7102 88.3397 46.3421 88.16 46.8055 87.9615C46.9409 87.5896 47.0624 87.1251 47.1628 86.5574C47.2989 85.7399 47.3594 85.1232 47.3594 84.6875C47.3594 82.7704 46.4631 81.0769 44.4574 79.5833C42.3304 77.9994 39.4926 76.3927 35.9221 74.7697L35.9105 74.7645L33.4282 73.5587L33.4183 73.5537C26.3688 69.935 20.683 66.6808 16.3729 63.7916L16.3623 63.7845C12.0231 60.7952 8.34523 56.8961 5.32578 52.1033L5.31958 52.0935C2.29655 47.1689 0.8125 41.1888 0.8125 34.2031C0.8125 23.9786 3.66055 15.6781 9.44467 9.40789L9.44749 9.40483C15.337 3.07362 24.5909 0.015625 36.9688 0.015625C47.4509 0.015625 55.8019 0.649239 61.9924 1.93496L62.1555 1.96884L62.2989 2.05377C64.8693 3.577 67.1207 5.17946 69.0471 6.86378C71.0329 8.51209 72.9099 10.513 74.6809 12.8583L74.8828 13.1258V13.4609C74.8828 16.8064 74.5485 20.4241 73.8851 24.3114C73.2679 28.1555 72.388 31.7034 71.242 34.9518C70.1495 38.1802 68.9254 40.6281 67.5245 42.1846L67.3918 42.3321L67.2127 42.4178C66.0558 42.9711 64.7848 43.393 63.4048 43.6887L63.388 43.6923L63.3711 43.6954C61.9814 43.9435 60.3012 44.0625 58.3438 44.0625C56.2906 44.0625 54.5696 43.9201 53.2049 43.6168C51.8353 43.3124 50.5606 42.8034 49.3863 42.0886L48.9862 41.845L46.8341 27.4051C44.3555 26.7575 41.7348 26.2841 38.9711 25.9864L38.9635 25.9856L38.956 25.9847C36.0885 25.6318 34.167 25.4761 33.1289 25.4934C31.674 26.1999 30.737 27.1375 30.2191 28.2798C29.6792 29.5291 29.3906 31.0718 29.3906 32.9375C29.3906 34.8519 29.8955 36.4644 30.8769 37.8199C31.9706 39.2166 33.2805 40.3724 34.8114 41.2909C36.4137 42.2523 38.4911 43.3383 41.0524 44.549L41.0624 44.5538L44.1746 46.1099L44.1832 46.1144C50.9023 49.6384 56.2138 52.7291 60.103 55.3851C64.0594 58.087 67.3628 61.5121 70.0108 65.651C72.7597 69.8263 74.1094 74.8525 74.1094 80.6797C74.1094 87.4738 72.3229 93.3808 68.7157 98.3529L68.7129 98.3566C65.1328 103.243 60.5266 106.784 54.9113 108.962C51.8779 110.166 48.5447 111.027 44.9167 111.552C41.2951 112.076 37.1204 112.336 32.3984 112.336C29.1282 112.336 25.6343 111.927 21.9199 111.118C18.1548 110.297 14.4952 108.851 10.9429 106.786L10.9378 106.784C7.37508 104.685 4.51392 101.873 2.36547 98.3574L2.27568 98.2104L2.2402 98.0419C2.03413 97.0631 1.9375 95.9118 1.9375 94.6016C1.9375 92.0842 2.40681 89.5542 3.33417 87.0162C4.27076 84.4529 5.72022 82.0517 7.66727 79.8126L8.14982 79.2576ZM54.5469 108.031C59.9844 105.922 64.4375 102.5 67.9062 97.7656C71.375 92.9844 73.1094 87.2891 73.1094 80.6797C73.1094 75.0078 71.7969 70.1797 69.1719 66.1953C66.5938 62.1641 63.3828 58.8359 59.5391 56.2109C55.6953 53.5859 50.4219 50.5156 43.7188 47L40.625 45.4531C38.0469 44.2344 35.9375 43.1328 34.2969 42.1484C32.6562 41.1641 31.25 39.9219 30.0781 38.4219C28.9531 36.875 28.3906 35.0469 28.3906 32.9375C28.3906 30.9688 28.6953 29.2812 29.3047 27.875C29.9609 26.4219 31.1562 25.2969 32.8906 24.5C33.9688 24.4531 36.0312 24.6172 39.0781 24.9922C42.125 25.3203 45.0078 25.8594 47.7266 26.6094L49.9062 41.2344C50.9844 41.8906 52.1562 42.3594 53.4219 42.6406C54.6875 42.9219 56.3281 43.0625 58.3438 43.0625C60.2656 43.0625 61.8828 42.9453 63.1953 42.7109C64.5078 42.4297 65.7031 42.0312 66.7812 41.5156C68.0469 40.1094 69.2188 37.8125 70.2969 34.625C71.4219 31.4375 72.2891 27.9453 72.8984 24.1484C73.5547 20.3047 73.8828 16.7422 73.8828 13.4609C72.1484 11.1641 70.3203 9.21875 68.3984 7.625C66.5234 5.98438 64.3203 4.41406 61.7891 2.91406C55.6953 1.64844 47.4219 1.01562 36.9688 1.01562C24.7344 1.01562 15.8047 4.03906 10.1797 10.0859C4.60156 16.1328 1.8125 24.1719 1.8125 34.2031C1.8125 41.0469 3.26562 46.8359 6.17188 51.5703C9.125 56.2578 12.7109 60.0547 16.9297 62.9609C21.1953 65.8203 26.8438 69.0547 33.875 72.6641L36.3359 73.8594C39.9453 75.5 42.8516 77.1406 45.0547 78.7812C47.2578 80.4219 48.3594 82.3906 48.3594 84.6875C48.3594 85.2031 48.2891 85.8828 48.1484 86.7266C48.0078 87.5234 47.8203 88.1797 47.5859 88.6953C46.9766 89.0234 46.1328 89.2812 45.0547 89.4688C44.0234 89.6562 43.0156 89.75 42.0312 89.75C36.6406 89.75 31.3906 88.9531 26.2812 87.3594C21.2188 85.7656 15.2656 83.4688 8.42188 80.4688C6.54688 82.625 5.16406 84.9219 4.27344 87.3594C3.38281 89.7969 2.9375 92.2109 2.9375 94.6016C2.9375 95.8672 3.03125 96.9453 3.21875 97.8359C5.28125 101.211 8.02344 103.906 11.4453 105.922C14.9141 107.938 18.4766 109.344 22.1328 110.141C25.7891 110.938 29.2109 111.336 32.3984 111.336C37.0859 111.336 41.2109 111.078 44.7734 110.562C48.3359 110.047 51.5938 109.203 54.5469 108.031Z" fill="white" fill-opacity="0.2"/>
</svg>
